<?xml version="1.0" encoding="UTF-8"?>
<svg xmlns="http://www.w3.org/2000/svg" xmlns:xlink="http://www.w3.org/1999/xlink" width="16px" height="16px" viewBox="0 0 16 16" version="1.1">
<g id="surface1">
<path style=" stroke:none;fill-rule:evenodd;fill:rgb(64.705882%,64.705882%,63.921569%);fill-opacity:1;" d="M -0.015625 -0.015625 C 5.320312 -0.015625 10.648438 -0.015625 15.984375 -0.015625 C 15.984375 5.320312 15.984375 10.648438 15.984375 15.984375 C 10.648438 15.984375 5.320312 15.984375 -0.015625 15.984375 C -0.015625 10.648438 -0.015625 5.320312 -0.015625 -0.015625 Z M -0.015625 -0.015625 "/>
<path style=" stroke:none;fill-rule:evenodd;fill:rgb(14.117647%,47.058824%,21.568627%);fill-opacity:1;" d="M 10.148438 4.804688 C 10.511719 5.339844 10.890625 5.867188 11.277344 6.386719 C 10.757812 6.261719 10.238281 6.148438 9.710938 6.042969 C 10.382812 7.132812 11.101562 8.1875 11.875 9.207031 C 11.375 9.082031 10.875 8.964844 10.367188 8.863281 C 10.882812 9.679688 11.4375 10.46875 12.03125 11.226562 C 12.125 11.398438 12.242188 11.5625 12.375 11.710938 C 12.261719 11.691406 12.148438 11.664062 12.03125 11.632812 C 11.582031 11.511719 11.132812 11.398438 10.679688 11.289062 C 10.53125 11.242188 10.371094 11.226562 10.210938 11.226562 C 10.179688 11.175781 10.125 11.148438 10.054688 11.148438 C 9.585938 11.066406 9.117188 10.996094 8.644531 10.945312 C 8.5625 10.886719 8.46875 10.863281 8.363281 10.867188 C 7.945312 10.84375 7.523438 10.851562 7.105469 10.882812 C 7.105469 10.914062 7.105469 10.945312 7.105469 10.976562 C 6.894531 10.988281 6.6875 11.007812 6.476562 11.039062 C 5.851562 11.132812 5.230469 11.265625 4.628906 11.445312 C 4.574219 11.4375 4.539062 11.445312 4.5 11.476562 C 4.175781 11.550781 3.851562 11.632812 3.53125 11.710938 C 3.601562 11.617188 3.675781 11.523438 3.75 11.429688 C 3.699219 11.414062 3.644531 11.40625 3.59375 11.414062 C 3.710938 11.402344 3.8125 11.351562 3.890625 11.257812 C 4.476562 10.460938 5.035156 9.65625 5.570312 8.832031 C 5.050781 8.941406 4.539062 9.066406 4.03125 9.207031 C 4.585938 8.492188 5.105469 7.757812 5.601562 7 C 5.800781 6.6875 5.996094 6.375 6.195312 6.058594 C 6.175781 6.050781 6.15625 6.039062 6.132812 6.027344 C 5.792969 6.09375 5.457031 6.175781 5.132812 6.277344 C 4.960938 6.320312 4.792969 6.355469 4.628906 6.386719 C 4.75 6.257812 4.855469 6.117188 4.941406 5.960938 C 6.199219 4.347656 7.207031 2.574219 7.953125 0.644531 C 8.527344 2.117188 9.257812 3.507812 10.148438 4.804688 Z M 10.148438 4.804688 "/>
<path style=" stroke:none;fill-rule:evenodd;fill:rgb(55.686275%,81.568627%,15.294118%);fill-opacity:1;" d="M 0.800781 8.46875 C 0.769531 8.148438 0.757812 7.828125 0.769531 7.5 C 1.042969 4.90625 2.320312 2.980469 4.59375 1.722656 C 5.457031 1.273438 6.367188 1.03125 7.324219 0.988281 C 7.226562 1.226562 7.117188 1.457031 7.011719 1.691406 C 4.949219 2.0625 3.398438 3.089844 2.351562 4.773438 C 1.84375 5.625 1.554688 6.542969 1.476562 7.53125 C 1.242188 7.835938 1.019531 8.152344 0.800781 8.46875 Z M 0.800781 8.46875 "/>
<path style=" stroke:none;fill-rule:evenodd;fill:rgb(55.686275%,81.568627%,15.686275%);fill-opacity:1;" d="M 8.394531 0.957031 C 9.351562 1.039062 10.261719 1.292969 11.121094 1.722656 C 11.136719 1.738281 11.148438 1.761719 11.152344 1.785156 C 11.089844 2.007812 11.007812 2.222656 10.898438 2.425781 C 10.207031 2.066406 9.476562 1.820312 8.707031 1.691406 C 8.597656 1.445312 8.492188 1.199219 8.394531 0.957031 Z M 8.394531 0.957031 "/>
<path style=" stroke:none;fill-rule:evenodd;fill:rgb(55.686275%,81.568627%,15.686275%);fill-opacity:1;" d="M 11.65625 2.050781 C 13.378906 3.148438 14.449219 4.707031 14.867188 6.714844 C 14.914062 7.03125 14.945312 7.34375 14.960938 7.65625 C 14.671875 7.257812 14.382812 6.863281 14.085938 6.464844 C 13.742188 5.226562 13.105469 4.175781 12.171875 3.304688 C 11.976562 2.894531 11.800781 2.476562 11.65625 2.050781 Z M 11.65625 2.050781 "/>
<path style=" stroke:none;fill-rule:evenodd;fill:rgb(13.72549%,30.980392%,14.509804%);fill-opacity:1;" d="M 12.03125 11.226562 C 11.4375 10.46875 10.882812 9.679688 10.367188 8.863281 C 10.875 8.964844 11.375 9.082031 11.875 9.207031 C 11.101562 8.1875 10.382812 7.132812 9.710938 6.042969 C 10.238281 6.148438 10.757812 6.261719 11.277344 6.386719 C 10.890625 5.867188 10.511719 5.339844 10.148438 4.804688 C 10.625 4.011719 11.027344 3.175781 11.355469 2.300781 C 12.074219 4.085938 13.035156 5.730469 14.226562 7.230469 C 13.769531 7.128906 13.304688 7.023438 12.847656 6.917969 C 13.429688 7.863281 14.054688 8.769531 14.730469 9.644531 C 14.300781 9.542969 13.875 9.449219 13.445312 9.363281 C 13.980469 10.199219 14.554688 11.015625 15.167969 11.804688 C 14.425781 11.601562 13.671875 11.417969 12.910156 11.273438 C 12.644531 11.238281 12.375 11.199219 12.109375 11.164062 C 12.070312 11.167969 12.039062 11.1875 12.03125 11.226562 Z M 12.03125 11.226562 "/>
<path style=" stroke:none;fill-rule:evenodd;fill:rgb(32.156863%,67.45098%,21.176471%);fill-opacity:1;" d="M 4.941406 5.960938 C 4.855469 6.117188 4.75 6.257812 4.628906 6.386719 C 4.792969 6.355469 4.960938 6.320312 5.132812 6.277344 C 5.261719 6.535156 5.417969 6.773438 5.601562 7 C 5.105469 7.757812 4.585938 8.492188 4.03125 9.207031 C 4.539062 9.066406 5.050781 8.941406 5.570312 8.832031 C 5.035156 9.65625 4.476562 10.460938 3.890625 11.257812 C 3.8125 11.351562 3.710938 11.402344 3.59375 11.414062 C 3.519531 11.414062 3.445312 11.414062 3.371094 11.414062 C 2.992188 11.449219 2.617188 11.507812 2.242188 11.585938 C 1.726562 11.707031 1.210938 11.832031 0.707031 11.960938 C 1.234375 11.300781 1.726562 10.609375 2.179688 9.894531 C 1.835938 9.929688 1.503906 10.011719 1.175781 10.132812 C 1.15625 10.117188 1.132812 10.105469 1.113281 10.101562 C 1.65625 9.367188 2.167969 8.617188 2.648438 7.84375 C 2.636719 7.832031 2.617188 7.820312 2.605469 7.8125 C 2.238281 7.898438 1.878906 7.988281 1.523438 8.078125 C 2.523438 6.804688 3.328125 5.414062 3.9375 3.898438 C 4.21875 4.617188 4.554688 5.304688 4.941406 5.960938 Z M 4.941406 5.960938 "/>
<path style=" stroke:none;fill-rule:evenodd;fill:rgb(57.647059%,57.647059%,57.647059%);fill-opacity:1;" d="M 5.601562 7 C 5.417969 6.773438 5.261719 6.535156 5.132812 6.277344 C 5.457031 6.175781 5.792969 6.09375 6.132812 6.027344 C 6.15625 6.039062 6.175781 6.050781 6.195312 6.058594 C 5.996094 6.375 5.800781 6.6875 5.601562 7 Z M 5.601562 7 "/>
<path style=" stroke:none;fill-rule:evenodd;fill:rgb(55.686275%,81.568627%,15.294118%);fill-opacity:1;" d="M 14.257812 7.65625 C 14.5 7.71875 14.742188 7.78125 14.980469 7.84375 C 14.984375 8.316406 14.945312 8.789062 14.867188 9.253906 C 14.683594 8.972656 14.488281 8.699219 14.273438 8.4375 C 14.257812 8.179688 14.253906 7.917969 14.257812 7.65625 Z M 14.257812 7.65625 "/>
<path style=" stroke:none;fill-rule:evenodd;fill:rgb(67.843137%,86.666667%,38.431373%);fill-opacity:1;" d="M 0.769531 7.5 C 0.757812 7.828125 0.769531 8.148438 0.800781 8.46875 C 0.800781 8.488281 0.789062 8.496094 0.769531 8.5 C 0.726562 8.164062 0.726562 7.828125 0.769531 7.5 Z M 0.769531 7.5 "/>
<path style=" stroke:none;fill-rule:evenodd;fill:rgb(56.470588%,81.960784%,17.647059%);fill-opacity:1;" d="M 1.332031 8.5 C 1.386719 8.5 1.4375 8.5 1.492188 8.5 C 1.5 8.648438 1.507812 8.792969 1.507812 8.9375 C 1.332031 9.199219 1.144531 9.449219 0.941406 9.691406 C 0.855469 9.351562 0.800781 9.007812 0.769531 8.65625 C 0.964844 8.625 1.152344 8.570312 1.332031 8.5 Z M 1.332031 8.5 "/>
<path style=" stroke:none;fill-rule:evenodd;fill:rgb(57.647059%,82.352941%,20.392157%);fill-opacity:1;" d="M 14.226562 9.941406 C 14.234375 9.921875 14.25 9.914062 14.273438 9.910156 C 14.414062 9.960938 14.554688 10.007812 14.699219 10.050781 C 14.660156 10.164062 14.617188 10.269531 14.570312 10.382812 C 14.457031 10.230469 14.34375 10.085938 14.226562 9.941406 Z M 14.226562 9.941406 "/>
<path style=" stroke:none;fill-rule:evenodd;fill:rgb(64.313725%,85.098039%,32.54902%);fill-opacity:1;" d="M 1.269531 10.445312 C 1.304688 10.4375 1.335938 10.445312 1.363281 10.457031 C 1.332031 10.519531 1.289062 10.574219 1.238281 10.632812 C 1.210938 10.59375 1.195312 10.550781 1.175781 10.507812 C 1.210938 10.484375 1.242188 10.460938 1.269531 10.445312 Z M 1.269531 10.445312 "/>
<path style=" stroke:none;fill-rule:evenodd;fill:rgb(34.117647%,14.901961%,8.235294%);fill-opacity:1;" d="M 8.644531 10.945312 C 8.644531 11.132812 8.644531 11.320312 8.644531 11.507812 C 8.644531 12.457031 8.644531 13.40625 8.644531 14.355469 C 8.375 14.402344 8.09375 14.425781 7.8125 14.417969 C 7.574219 14.417969 7.339844 14.40625 7.105469 14.386719 C 7.105469 13.574219 7.105469 12.757812 7.105469 11.945312 C 7.105469 11.925781 7.105469 11.902344 7.105469 11.882812 C 7.105469 11.582031 7.105469 11.273438 7.105469 10.976562 C 7.105469 10.945312 7.105469 10.914062 7.105469 10.882812 C 7.523438 10.851562 7.945312 10.84375 8.363281 10.867188 C 8.46875 10.863281 8.5625 10.886719 8.644531 10.945312 Z M 8.644531 10.945312 "/>
<path style=" stroke:none;fill-rule:evenodd;fill:rgb(55.686275%,55.686275%,55.686275%);fill-opacity:1;" d="M 7.105469 10.976562 C 7.105469 11.273438 7.105469 11.582031 7.105469 11.882812 C 6.898438 11.601562 6.6875 11.320312 6.476562 11.039062 C 6.6875 11.007812 6.894531 10.988281 7.105469 10.976562 Z M 7.105469 10.976562 "/>
<path style=" stroke:none;fill-rule:evenodd;fill:rgb(14.509804%,31.764706%,15.294118%);fill-opacity:1;" d="M 8.644531 10.945312 C 9.117188 10.996094 9.585938 11.066406 10.054688 11.148438 C 10.125 11.148438 10.179688 11.175781 10.210938 11.226562 C 9.679688 11.289062 9.164062 11.382812 8.644531 11.507812 C 8.644531 11.320312 8.644531 11.132812 8.644531 10.945312 Z M 8.644531 10.945312 "/>
<path style=" stroke:none;fill-rule:evenodd;fill:rgb(32.941176%,67.45098%,22.352941%);fill-opacity:1;" d="M 6.476562 11.039062 C 6.6875 11.320312 6.898438 11.601562 7.105469 11.882812 C 7.105469 11.902344 7.105469 11.925781 7.105469 11.945312 C 6.5625 11.816406 6.019531 11.683594 5.476562 11.554688 C 5.195312 11.492188 4.914062 11.460938 4.628906 11.445312 C 5.230469 11.265625 5.851562 11.132812 6.476562 11.039062 Z M 6.476562 11.039062 "/>
<path style=" stroke:none;fill-rule:evenodd;fill:rgb(64.705882%,64.705882%,63.921569%);fill-opacity:1;" d="M 10.210938 11.226562 C 10.371094 11.226562 10.53125 11.242188 10.679688 11.289062 C 10.679688 12.113281 10.679688 12.9375 10.679688 13.761719 C 10.042969 14.089844 9.363281 14.289062 8.644531 14.355469 C 8.644531 13.40625 8.644531 12.457031 8.644531 11.507812 C 9.164062 11.382812 9.679688 11.289062 10.210938 11.226562 Z M 10.210938 11.226562 "/>
<path style=" stroke:none;fill-rule:evenodd;fill:rgb(34.117647%,14.901961%,8.235294%);fill-opacity:1;" d="M 10.679688 11.289062 C 11.132812 11.398438 11.582031 11.511719 12.03125 11.632812 C 12.03125 12.050781 12.03125 12.46875 12.03125 12.882812 C 11.632812 13.246094 11.179688 13.539062 10.679688 13.761719 C 10.679688 12.9375 10.679688 12.113281 10.679688 11.289062 Z M 10.679688 11.289062 "/>
<path style=" stroke:none;fill-rule:evenodd;fill:rgb(34.117647%,15.294118%,8.235294%);fill-opacity:1;" d="M 3.371094 11.414062 C 3.445312 11.414062 3.519531 11.414062 3.59375 11.414062 C 3.644531 11.40625 3.699219 11.414062 3.75 11.429688 C 3.675781 11.523438 3.601562 11.617188 3.53125 11.710938 C 3.851562 11.632812 4.175781 11.550781 4.5 11.476562 C 4.5 12.144531 4.5 12.8125 4.5 13.480469 C 4.085938 13.226562 3.710938 12.917969 3.371094 12.570312 C 3.371094 12.1875 3.371094 11.800781 3.371094 11.414062 Z M 3.371094 11.414062 "/>
<path style=" stroke:none;fill-rule:evenodd;fill:rgb(64.705882%,64.705882%,63.921569%);fill-opacity:1;" d="M 4.628906 11.445312 C 4.914062 11.460938 5.195312 11.492188 5.476562 11.554688 C 6.019531 11.683594 6.5625 11.816406 7.105469 11.945312 C 7.105469 12.757812 7.105469 13.574219 7.105469 14.386719 C 6.167969 14.277344 5.300781 13.976562 4.5 13.480469 C 4.5 12.8125 4.5 12.144531 4.5 11.476562 C 4.539062 11.445312 4.574219 11.4375 4.628906 11.445312 Z M 4.628906 11.445312 "/>
<path style=" stroke:none;fill-rule:evenodd;fill:rgb(55.686275%,81.568627%,15.686275%);fill-opacity:1;" d="M 3.371094 12.570312 C 3.710938 12.917969 4.085938 13.226562 4.5 13.480469 C 5.300781 13.976562 6.167969 14.277344 7.105469 14.386719 C 7.339844 14.40625 7.574219 14.417969 7.8125 14.417969 C 8.09375 14.425781 8.375 14.402344 8.644531 14.355469 C 9.363281 14.289062 10.042969 14.089844 10.679688 13.761719 C 11.179688 13.539062 11.632812 13.246094 12.03125 12.882812 C 12.273438 12.675781 12.507812 12.453125 12.722656 12.210938 C 12.863281 12.207031 13 12.230469 13.132812 12.289062 C 13.140625 12.28125 13.148438 12.269531 13.164062 12.257812 C 13.085938 12.15625 13.011719 12.050781 12.941406 11.945312 C 12.988281 11.863281 13.042969 11.789062 13.101562 11.710938 C 13.355469 11.730469 13.605469 11.789062 13.851562 11.882812 C 12.554688 13.820312 10.734375 14.898438 8.394531 15.125 C 5.679688 15.238281 3.539062 14.203125 1.960938 12.023438 C 2.199219 11.964844 2.445312 11.910156 2.679688 11.851562 C 2.734375 11.863281 2.765625 11.894531 2.773438 11.945312 C 2.714844 12.0625 2.644531 12.171875 2.554688 12.273438 C 2.699219 12.226562 2.84375 12.207031 2.992188 12.210938 C 3.117188 12.335938 3.242188 12.457031 3.371094 12.570312 Z M 3.371094 12.570312 "/>
</g>
</svg>
